<svg width="450" height="450" viewBox="0 0 450 450" fill="none" xmlns="http://www.w3.org/2000/svg">
<circle cx="225" cy="225" r="225" fill="#1F1D2B"/>
<path d="M141.041 281.994C136.096 281.994 131.615 281.067 127.597 279.213C123.641 277.42 120.488 274.886 118.139 271.61C115.852 268.396 114.709 264.718 114.709 260.576C114.709 259.278 114.801 257.578 114.987 255.477C115.234 253.313 115.512 250.933 115.821 248.337C116.192 245.741 116.594 243.114 117.027 240.456C117.459 237.736 117.861 235.171 118.232 232.76L126.021 233.966C125.341 238.169 124.753 242.094 124.259 245.741C123.764 249.326 123.363 252.386 123.053 254.92C122.806 257.455 122.683 259.34 122.683 260.576C122.683 263.358 123.424 265.799 124.908 267.901C126.453 270.064 128.617 271.764 131.398 273.001C134.18 274.237 137.394 274.855 141.041 274.855C144.688 274.855 147.809 274.268 150.406 273.093C153.002 271.981 154.98 270.374 156.34 268.272C157.7 266.232 158.379 263.852 158.379 261.133V212.64H166.261V261.133C166.261 265.459 165.117 269.168 162.83 272.259C160.605 275.411 157.576 277.822 153.744 279.491C149.973 281.16 145.739 281.994 141.041 281.994ZM136.683 212.177V203.554H144.657V212.177H136.683ZM182.013 259V192.613H189.895V259H182.013ZM177.192 186.586L174.04 184.083L178.212 178.242H183.312C183.93 178.983 184.764 179.54 185.815 179.911C186.928 180.281 187.978 180.467 188.967 180.467C190.08 180.467 191.1 180.312 192.027 180.003C193.016 179.632 193.851 179.107 194.531 178.427L197.219 180.652C196.601 181.641 195.829 182.569 194.901 183.434C194.036 184.237 193.016 184.886 191.842 185.381C190.667 185.876 189.338 186.123 187.855 186.123C186.495 186.123 185.135 185.906 183.775 185.474C182.477 184.979 181.364 184.299 180.437 183.434L177.192 186.586ZM215.429 259V251.861H227.297V259H215.429ZM199.944 279.862C199.141 279.862 198.306 279.8 197.441 279.676C196.514 279.615 195.618 279.553 194.752 279.491L195.494 272.352C196.359 272.413 197.194 272.475 197.997 272.537C198.739 272.661 199.388 272.722 199.944 272.722C202.788 272.722 205.075 271.641 206.806 269.477C208.536 267.314 209.402 264.316 209.402 260.484V212.64H217.376V260.484C217.376 264.316 216.634 267.685 215.15 270.59C213.667 273.557 211.596 275.844 208.938 277.451C206.342 279.058 203.344 279.862 199.944 279.862ZM227.297 259V251.861C228.1 251.861 228.595 252.17 228.78 252.788C229.027 253.406 229.151 254.271 229.151 255.384C229.151 256.435 229.027 257.3 228.78 257.98C228.595 258.66 228.1 259 227.297 259ZM276.866 259V251.861H286.88V259H276.866ZM227.261 259V251.861H273.621L268.892 255.848V216.72L272.601 219.78H257.395C253.933 219.78 251.244 220.212 249.328 221.078C247.474 221.881 246.176 223.458 245.434 225.807C244.754 228.094 244.414 231.432 244.414 235.82C244.414 240.271 244.754 243.64 245.434 245.927C246.176 248.214 247.474 249.79 249.328 250.655C251.244 251.459 253.933 251.861 257.395 251.861V257.238C252.079 257.238 247.876 256.558 244.785 255.199C241.756 253.839 239.593 251.613 238.295 248.523C237.058 245.37 236.44 241.136 236.44 235.82C236.44 230.504 237.058 226.147 238.295 222.747C239.593 219.285 241.756 216.751 244.785 215.144C247.876 213.475 252.079 212.64 257.395 212.64H276.866V259H227.261ZM227.261 259C226.458 259 225.963 258.66 225.778 257.98C225.53 257.3 225.407 256.435 225.407 255.384C225.407 254.271 225.53 253.406 225.778 252.788C225.963 252.17 226.458 251.861 227.261 251.861V259ZM286.88 259V251.861C287.621 251.861 288.116 252.17 288.363 252.788C288.61 253.406 288.734 254.271 288.734 255.384C288.734 256.435 288.61 257.3 288.363 257.98C288.116 258.66 287.621 259 286.88 259ZM248.772 204.667V196.044H256.746V204.667H248.772ZM261.474 204.667V196.044H269.448V204.667H261.474ZM297.967 259V192.613H305.941V259H297.967ZM286.84 259V251.861H297.967V259H286.84ZM286.84 259C286.037 259 285.542 258.66 285.357 257.98C285.11 257.3 284.986 256.435 284.986 255.384C284.986 254.271 285.11 253.406 285.357 252.788C285.542 252.17 286.037 251.861 286.84 251.861V259ZM321.726 259V192.613H329.607V259H321.726Z" fill="#F9F9F9"/>
</svg>
